<svg width="39" height="39" viewBox="0 0 39 39" fill="none" xmlns="http://www.w3.org/2000/svg">
<path fill-rule="evenodd" clip-rule="evenodd" d="M17.625 7.76065V12H15.75C9.80437 12 4.78313 15.9525 3.16875 21.375H0.75V28.875H3.16875C4.78313 34.2975 9.80437 38.25 15.75 38.25C18.2025 38.25 20.7975 38.25 23.25 38.25C29.1956 38.25 34.2169 34.2975 35.8313 28.875H38.25V21.375H35.8313C34.2169 15.9525 29.1956 12 23.25 12H21.375V7.77187C22.5056 7.12312 23.2669 5.90438 23.2669 4.50938C23.2669 2.43376 21.5831 0.75 19.5094 0.75C17.4337 0.75 15.75 2.43376 15.75 4.50938C15.75 5.89688 16.5037 7.11003 17.625 7.76065ZM6.375 25.125C6.375 19.9481 10.5731 15.75 15.75 15.75C18.2025 15.75 20.7975 15.75 23.25 15.75C28.4269 15.75 32.625 19.9481 32.625 25.125C32.625 25.1325 32.625 25.1419 32.625 25.1494C32.625 30.3019 28.4269 34.5 23.25 34.5C20.7975 34.5 18.2025 34.5 15.75 34.5C10.5731 34.5 6.375 30.3019 6.375 25.125ZM23.25 23.25V27H27V23.25H23.25ZM12 23.25V27H15.75V23.25H12Z" fill="#006DEF"/>
</svg>